<?xml version="1.0" encoding="UTF-8"?>
<svg width="160px" height="36px" viewBox="0 0 260 60" version="1.1" xmlns="http://www.w3.org/2000/svg" xmlns:xlink="http://www.w3.org/1999/xlink">
    <!-- Generator: Sketch 56.3 (81716) - https://sketch.com -->
    <title>BR_by sync</title>
    <desc>Created with Sketch.</desc>
    <g id="BR_by-sync" stroke="none" stroke-width="1" fill="none" fill-rule="evenodd">
        <g id="Bold-Reports-logo" transform="translate(1.000000, 3.000000)" fill-rule="nonzero">
            <path d="M27.61,0.9 L17.82,1.18 C16.69,1.21 15.62,1.63 14.78,2.37 C11.63,5.13 3.66,12.56 0.72,22.18 C-1.22,28.53 3.8,34.89 10.53,34.89 L33.81,34.89 C34.37,34.89 34.62,34.21 34.2,33.85 C31.51,31.56 28.32,27.47 37.55,18.2 C48.32,7.39 38.94,0.68 27.61,0.9 Z M23.63,23.31 C23.58,23.46 23.43,23.55 23.27,23.55 L10.71,23.55 C9.88,23.55 9.3,22.74 9.58,21.97 C9.91,21.08 10.43,19.96 11.18,18.88 L25.98,18.88 C24.84,20.28 24.15,21.9 23.63,23.31 Z M31.64,11.51 C31.22,12.27 30.62,13.06 30,13.79 L14.44,13.79 C15.37,12.32 16.78,10.69 17.98,9.59 C18.31,9.29 18.73,9.12 19.18,9.12 L28.56,9.12 C31.46,9.12 32.23,10.43 31.64,11.51 Z" id="Shape" fill="#FF4800"></path>
            <path d="M57.88,50.04 L53.94,50.04 L53.94,40.78 L57.42,40.78 C59.14,40.78 60.16,41.76 60.16,43.29 C60.16,44.2 59.7,44.84 59.04,45.13 C59.94,45.37 60.65,46.19 60.65,47.34 C60.66,48.93 59.57,50.04 57.88,50.04 Z M58.34,43.44 C58.34,42.72 57.9,42.34 57.28,42.34 L55.79,42.34 L55.79,44.53 L57.28,44.53 C57.9,44.53 58.34,44.15 58.34,43.44 Z M58.78,47.26 C58.78,46.5 58.32,46.02 57.66,46.02 L55.79,46.02 L55.79,48.49 L57.66,48.49 C58.32,48.49 58.78,48 58.78,47.26 Z M65.14,53.11 L63.24,53.11 L64.44,50.04 L61.93,43.19 L63.82,43.19 L65.34,47.74 L66.89,43.19 L68.78,43.19 L65.14,53.11 Z M75.13,48.3 L75.94,47.44 C76.64,48.17 77.35,48.59 78.33,48.59 C79.22,48.59 79.87,48.15 79.87,47.46 C79.87,46.85 79.48,46.34 77.99,46.03 C76.14,45.64 75.15,44.68 75.15,43.3 C75.15,41.73 76.43,40.63 78.23,40.63 C79.98,40.63 81.32,41.54 81.56,43.43 L79.67,43.43 C79.53,42.64 79.04,42.22 78.31,42.22 C77.59,42.22 77.05,42.6 77.05,43.16 C77.05,43.79 77.51,44.22 78.82,44.52 C80.89,45 81.77,45.96 81.77,47.42 C81.77,49.04 80.48,50.21 78.37,50.21 C77.23,50.2 76.06,49.6 75.13,48.3 Z M86.18,53.11 L84.28,53.11 L85.48,50.04 L82.97,43.19 L84.86,43.19 L86.38,47.74 L87.93,43.19 L89.82,43.19 L86.18,53.11 Z M95.33,43.03 C96.94,43.03 98.05,44.14 98.05,45.8 L98.05,50.04 L96.23,50.04 L96.23,45.99 C96.23,45.23 95.64,44.63 94.93,44.63 C94.09,44.63 93.38,45.27 93.38,46.3 L93.38,50.03 L91.56,50.03 L91.56,43.18 L93.38,43.18 L93.38,43.95 C93.86,43.38 94.54,43.03 95.33,43.03 Z M105.76,47.54 L106.73,48.29 C106.04,49.56 105.01,50.2 103.69,50.2 C101.52,50.2 99.95,48.62 99.95,46.62 C99.95,44.62 101.51,43.04 103.55,43.04 C105.3,43.04 106.5,43.99 106.91,45.5 L104.93,45.5 C104.71,44.98 104.24,44.65 103.55,44.65 C102.56,44.65 101.77,45.52 101.77,46.63 C101.77,47.75 102.56,48.61 103.75,48.61 C104.58,48.59 105.26,48.19 105.76,47.54 Z M112.79,40.45 L112.79,41.9 C112.61,41.88 112.37,41.87 112.18,41.87 C111.43,41.87 111.14,42.18 111.14,42.82 L111.14,43.19 L112.8,43.19 L112.8,44.77 L111.14,44.77 L111.14,50.04 L109.32,50.04 L109.32,44.77 L108.16,44.77 L108.16,43.19 L109.32,43.19 L109.32,42.8 C109.32,41.18 110.23,40.39 112.01,40.39 C112.28,40.39 112.58,40.42 112.79,40.45 Z M117.26,50.2 C115.65,50.2 114.54,49.09 114.54,47.43 L114.54,43.19 L116.36,43.19 L116.36,47.24 C116.36,48 116.95,48.6 117.66,48.6 C118.52,48.6 119.21,47.93 119.21,46.85 L119.21,43.2 L121.03,43.2 L121.03,50.05 L119.21,50.05 L119.21,49.29 C118.73,49.86 118.04,50.2 117.26,50.2 Z M123.22,48.77 L123.97,47.93 C124.51,48.45 125.03,48.74 125.71,48.74 C126.34,48.74 126.71,48.48 126.71,48.06 C126.71,47.65 126.42,47.4 125.53,47.22 C124.04,46.92 123.3,46.16 123.3,45.03 C123.3,43.88 124.29,43.03 125.77,43.03 C127.32,43.03 128.22,43.88 128.44,45.19 L126.73,45.19 C126.64,44.75 126.34,44.48 125.86,44.48 C125.43,44.48 125.07,44.7 125.07,45.05 C125.07,45.41 125.39,45.71 126.16,45.87 C127.75,46.19 128.47,46.92 128.47,48.08 C128.47,49.29 127.46,50.2 125.76,50.2 C124.75,50.2 123.92,49.7 123.22,48.77 Z M130.55,50.04 L130.55,43.19 L132.37,43.19 L132.37,50.04 L130.55,50.04 Z M130.38,41.37 C130.38,40.78 130.85,40.32 131.46,40.32 C132.07,40.32 132.54,40.78 132.54,41.37 C132.54,41.96 132.07,42.42 131.46,42.42 C130.85,42.42 130.38,41.96 130.38,41.37 Z M134.45,46.62 C134.45,44.62 136.08,43.04 138.25,43.04 C140.43,43.04 142.05,44.62 142.05,46.62 C142.05,48.62 140.43,50.2 138.25,50.2 C136.07,50.2 134.45,48.62 134.45,46.62 Z M136.27,46.62 C136.27,47.74 137.13,48.6 138.25,48.6 C139.37,48.6 140.23,47.74 140.23,46.62 C140.23,45.51 139.37,44.64 138.25,44.64 C137.13,44.64 136.27,45.51 136.27,46.62 Z M147.86,43.03 C149.47,43.03 150.58,44.14 150.58,45.8 L150.58,50.04 L148.76,50.04 L148.76,45.99 C148.76,45.23 148.17,44.63 147.46,44.63 C146.62,44.63 145.91,45.27 145.91,46.3 L145.91,50.03 L144.09,50.03 L144.09,43.18 L145.91,43.18 L145.91,43.95 C146.39,43.38 147.07,43.03 147.86,43.03 Z" id="BySyncfusion_3_" fill="#283A5E"></path>
            <g id="Group" transform="translate(53.000000, 7.000000)" fill="#283A5E">
                <path d="M0.94,24.53 L0.94,1.25 L9.95,1.25 C14.29,1.25 16.99,3.78 16.99,7.55 C16.99,9.8 15.83,11.53 14.11,12.26 C16.42,12.89 18.17,14.92 18.17,17.73 C18.17,21.69 15.28,24.53 11.02,24.53 L0.94,24.53 Z M9.54,5.67 L6.28,5.67 L6.28,10.49 L9.54,10.49 C10.9,10.49 11.87,9.63 11.87,8.08 C11.87,6.54 10.91,5.67 9.54,5.67 Z M10.22,14.75 L6.28,14.75 L6.28,20.11 L10.22,20.11 C11.68,20.11 12.71,19.05 12.71,17.43 C12.72,15.8 11.69,14.75 10.22,14.75 Z" id="Shape"></path>
                <path d="M30.07,6.9 C35.58,6.9 39.72,10.86 39.72,15.91 C39.72,20.97 35.58,24.92 30.07,24.92 C24.56,24.92 20.42,20.96 20.42,15.91 C20.43,10.86 24.57,6.9 30.07,6.9 Z M30.07,20.24 C32.55,20.24 34.41,18.38 34.41,15.92 C34.41,13.47 32.55,11.6 30.07,11.6 C27.59,11.6 25.73,13.48 25.73,15.92 C25.73,18.38 27.6,20.24 30.07,20.24 Z" id="Shape"></path>
                <polygon id="Path" points="42.82 0.25 48.16 0.25 48.16 24.53 42.82 24.53"></polygon>
                <path d="M59.4,6.9 C61.66,6.9 63.52,7.76 64.87,9.2 L64.87,0.25 L70.13,0.25 L70.13,24.53 L64.87,24.53 L64.87,22.63 C63.52,24.06 61.66,24.93 59.4,24.93 C54.66,24.93 51.3,20.97 51.3,15.92 C51.3,10.86 54.66,6.9 59.4,6.9 Z M60.72,20.24 C63.05,20.24 64.88,18.38 64.88,15.92 C64.88,13.47 63.05,11.6 60.72,11.6 C58.41,11.6 56.61,13.48 56.61,15.92 C56.61,18.38 58.4,20.24 60.72,20.24 Z" id="Shape"></path>
                <path d="M89.33,1.25 C94.2,1.25 97.55,4.31 97.55,8.83 C97.55,12.12 95.8,14.62 92.93,15.68 L98.17,24.53 L92.2,24.53 L87.56,16.41 L86.18,16.41 L86.18,24.53 L80.72,24.53 L80.72,1.25 L89.33,1.25 Z M86.17,5.64 L86.17,12.28 L88.76,12.28 C90.86,12.28 92.09,10.93 92.09,8.97 C92.09,6.97 90.86,5.64 88.76,5.64 L86.17,5.64 Z" id="Shape"></path>
                <path d="M109.7,20.91 C111.98,20.91 113.68,20.23 115.27,18.81 L117.53,21.34 C115.65,23.44 113.17,24.93 109.63,24.93 C103.68,24.93 99.7,20.97 99.7,15.92 C99.7,10.86 103.77,6.91 109.15,6.91 C114.42,6.91 118.26,10.8 118.26,15.64 C118.26,16.22 118.16,16.9 118.01,17.4 L105.05,17.4 C105.44,19.58 107.14,20.91 109.7,20.91 Z M105.14,14.02 L112.82,14.02 C112.4,12.12 111.06,10.93 109.08,10.93 C107.14,10.93 105.66,12.09 105.14,14.02 Z" id="Shape"></path>
                <path d="M132.08,24.93 C129.82,24.93 127.94,24.07 126.61,22.63 L126.61,32.24 L121.35,32.24 L121.35,7.3 L126.61,7.3 L126.61,9.2 C127.94,7.77 129.82,6.9 132.08,6.9 C136.8,6.9 140.18,10.86 140.18,15.91 C140.18,20.97 136.8,24.93 132.08,24.93 Z M130.75,11.59 C128.44,11.59 126.61,13.47 126.61,15.91 C126.61,18.37 128.44,20.23 130.75,20.23 C133.06,20.23 134.87,18.37 134.87,15.91 C134.87,13.47 133.06,11.59 130.75,11.59 Z" id="Shape"></path>
                <path d="M151.85,6.9 C157.36,6.9 161.5,10.86 161.5,15.91 C161.5,20.97 157.36,24.92 151.85,24.92 C146.34,24.92 142.2,20.96 142.2,15.91 C142.2,10.86 146.34,6.9 151.85,6.9 Z M151.85,20.24 C154.33,20.24 156.19,18.38 156.19,15.92 C156.19,13.47 154.33,11.6 151.85,11.6 C149.37,11.6 147.50996,13.48 147.50996,15.92 C147.5,18.38 149.37,20.24 151.85,20.24 Z" id="Shape"></path>
                <path d="M169.92,15.39 L169.92,24.54 L164.58,24.54 L164.58,7.3 L169.92,7.3 L169.92,9.25 C171.02,7.82 172.53,6.9 174.48,6.9 C174.96,6.9 175.43,7.02 175.76,7.17 L175.38,11.98 C174.71,11.75 173.95,11.6 173.28,11.6 C171.48,11.59 169.92,12.98 169.92,15.39 Z" id="Path"></path>
                <path d="M185,18.3 C185,19.68 185.63,20.31 187.21,20.31 C187.78,20.31 188.47,20.28 188.96,20.21 L188.96,24.15 C188.1,24.67 186.88,24.93 185.58,24.93 C181.9,24.93 179.64,22.7 179.64,18.84 L179.64,11.92 L176.81,11.92 L176.81,7.3 L179.64,7.3 L179.64,3.11 L185,2.31 L185,7.3 L188.76,7.3 L188.76,11.92 L185,11.92 L185,18.3 Z" id="Path"></path>
                <path d="M192.97,18.96 C194.33,20.22 195.8,20.87 197.44,20.87 C198.77,20.87 199.54,20.34 199.54,19.49 C199.54,18.64 198.87,18.11 196.9,17.69 C193.27,16.92 191.33,14.95 191.33,12.07 C191.33,9.08 193.94,6.9 197.72,6.9 C201.81,6.9 204.09,9.25 204.56,12.52 L199.94,12.52 C199.74,11.54 199.06,10.96 198.03,10.96 C197.08,10.96 196.38,11.41 196.38,12.14 C196.38,12.91 197.03,13.5 198.91,13.9 C202.85,14.73 204.71,16.64 204.71,19.52 C204.71,22.61 202,24.93 197.77,24.93 C195.21,24.93 192.91,23.68 191.03,21.29 L192.97,18.96 Z" id="Path"></path>
            </g>
        </g>
    </g>
</svg>